<mxfile host="Electron" modified="2024-02-11T04:19:11.356Z" agent="Mozilla/5.0 (Windows NT 10.0; Win64; x64) AppleWebKit/537.36 (KHTML, like Gecko) draw.io/23.0.2 Chrome/120.0.6099.109 Electron/28.1.0 Safari/537.36" etag="2xnstCZfmNrCx5DOZTye" version="23.0.2" type="device">
  <diagram name="Page-1" id="M6mU1UnVFSXWQ-pQoWz6">
    <mxGraphModel dx="4886" dy="616" grid="1" gridSize="10" guides="1" tooltips="1" connect="1" arrows="1" fold="1" page="1" pageScale="1" pageWidth="850" pageHeight="1400" math="0" shadow="0">
      <root>
        <mxCell id="0" />
        <mxCell id="1" parent="0" />
        <mxCell id="s2hgowLs5H10p0vM7yE1-1" value="" style="rounded=0;whiteSpace=wrap;html=1;sketch=1;hachureGap=4;jiggle=2;curveFitting=1;fontFamily=Architects Daughter;fontSource=https%3A%2F%2Ffonts.googleapis.com%2Fcss%3Ffamily%3DArchitects%2BDaughter;fontSize=20;" vertex="1" parent="1">
          <mxGeometry x="880" y="2840" width="1440" height="3120" as="geometry" />
        </mxCell>
        <mxCell id="s2hgowLs5H10p0vM7yE1-3" value="Contact Us" style="rounded=0;whiteSpace=wrap;html=1;sketch=1;hachureGap=4;jiggle=2;curveFitting=1;fontFamily=Architects Daughter;fontSource=https%3A%2F%2Ffonts.googleapis.com%2Fcss%3Ffamily%3DArchitects%2BDaughter;fontSize=60;strokeColor=none;" vertex="1" parent="1">
          <mxGeometry x="1110" y="3020" width="320" height="70" as="geometry" />
        </mxCell>
        <mxCell id="s2hgowLs5H10p0vM7yE1-4" value="Call Us" style="rounded=0;whiteSpace=wrap;html=1;sketch=1;hachureGap=4;jiggle=2;curveFitting=1;fontFamily=Architects Daughter;fontSource=https%3A%2F%2Ffonts.googleapis.com%2Fcss%3Ffamily%3DArchitects%2BDaughter;fontSize=55;strokeColor=none;" vertex="1" parent="1">
          <mxGeometry x="1090" y="3190" width="190" height="70" as="geometry" />
        </mxCell>
        <mxCell id="s2hgowLs5H10p0vM7yE1-5" value="Write To Us" style="rounded=0;whiteSpace=wrap;html=1;sketch=1;hachureGap=4;jiggle=2;curveFitting=1;fontFamily=Architects Daughter;fontSource=https%3A%2F%2Ffonts.googleapis.com%2Fcss%3Ffamily%3DArchitects%2BDaughter;fontSize=55;strokeColor=none;" vertex="1" parent="1">
          <mxGeometry x="1090" y="3420" width="330" height="60" as="geometry" />
        </mxCell>
        <mxCell id="s2hgowLs5H10p0vM7yE1-7" style="edgeStyle=orthogonalEdgeStyle;rounded=0;sketch=1;hachureGap=4;jiggle=2;curveFitting=1;orthogonalLoop=1;jettySize=auto;html=1;exitX=0.5;exitY=1;exitDx=0;exitDy=0;fontFamily=Architects Daughter;fontSource=https%3A%2F%2Ffonts.googleapis.com%2Fcss%3Ffamily%3DArchitects%2BDaughter;fontSize=16;" edge="1" parent="1">
          <mxGeometry relative="1" as="geometry">
            <mxPoint x="1285" y="3490.0000000000005" as="sourcePoint" />
            <mxPoint x="1285" y="3490.0000000000005" as="targetPoint" />
          </mxGeometry>
        </mxCell>
        <mxCell id="s2hgowLs5H10p0vM7yE1-8" value="920-123-1234 | 9am-6pm CST M-F" style="rounded=0;whiteSpace=wrap;html=1;sketch=1;hachureGap=4;jiggle=2;curveFitting=1;fontFamily=Architects Daughter;fontSource=https%3A%2F%2Ffonts.googleapis.com%2Fcss%3Ffamily%3DArchitects%2BDaughter;fontSize=39;strokeColor=none;" vertex="1" parent="1">
          <mxGeometry x="1090" y="3270" width="600" height="70" as="geometry" />
        </mxCell>
        <mxCell id="s2hgowLs5H10p0vM7yE1-19" value="" style="rounded=0;whiteSpace=wrap;html=1;sketch=1;hachureGap=4;jiggle=2;curveFitting=1;fontFamily=Architects Daughter;fontSource=https%3A%2F%2Ffonts.googleapis.com%2Fcss%3Ffamily%3DArchitects%2BDaughter;fontSize=20;" vertex="1" parent="1">
          <mxGeometry x="1030" y="3530" width="1160" height="2220" as="geometry" />
        </mxCell>
        <mxCell id="s2hgowLs5H10p0vM7yE1-9" value="1/2 What was wrong?" style="rounded=0;whiteSpace=wrap;html=1;sketch=1;hachureGap=4;jiggle=2;curveFitting=1;fontFamily=Architects Daughter;fontSource=https%3A%2F%2Ffonts.googleapis.com%2Fcss%3Ffamily%3DArchitects%2BDaughter;fontSize=55;strokeColor=none;" vertex="1" parent="1">
          <mxGeometry x="1090" y="3560" width="580" height="60" as="geometry" />
        </mxCell>
        <mxCell id="s2hgowLs5H10p0vM7yE1-10" value="" style="rounded=0;whiteSpace=wrap;html=1;sketch=1;hachureGap=4;jiggle=2;curveFitting=1;fontFamily=Architects Daughter;fontSource=https%3A%2F%2Ffonts.googleapis.com%2Fcss%3Ffamily%3DArchitects%2BDaughter;fontSize=20;" vertex="1" parent="1">
          <mxGeometry x="1090" y="3710" width="1020" height="500" as="geometry" />
        </mxCell>
        <mxCell id="s2hgowLs5H10p0vM7yE1-11" value="2/2 Contact Info" style="rounded=0;whiteSpace=wrap;html=1;sketch=1;hachureGap=4;jiggle=2;curveFitting=1;fontFamily=Architects Daughter;fontSource=https%3A%2F%2Ffonts.googleapis.com%2Fcss%3Ffamily%3DArchitects%2BDaughter;fontSize=55;strokeColor=none;" vertex="1" parent="1">
          <mxGeometry x="1070" y="4290" width="440" height="60" as="geometry" />
        </mxCell>
        <mxCell id="s2hgowLs5H10p0vM7yE1-12" value="* First Name" style="rounded=0;whiteSpace=wrap;html=1;sketch=1;hachureGap=4;jiggle=2;curveFitting=1;fontFamily=Architects Daughter;fontSource=https%3A%2F%2Ffonts.googleapis.com%2Fcss%3Ffamily%3DArchitects%2BDaughter;fontSize=55;strokeColor=none;" vertex="1" parent="1">
          <mxGeometry x="1060" y="4380" width="350" height="70" as="geometry" />
        </mxCell>
        <mxCell id="s2hgowLs5H10p0vM7yE1-14" value="" style="rounded=0;whiteSpace=wrap;html=1;sketch=1;hachureGap=4;jiggle=2;curveFitting=1;fontFamily=Architects Daughter;fontSource=https%3A%2F%2Ffonts.googleapis.com%2Fcss%3Ffamily%3DArchitects%2BDaughter;fontSize=20;" vertex="1" parent="1">
          <mxGeometry x="1070" y="4500" width="1020" height="120" as="geometry" />
        </mxCell>
        <mxCell id="s2hgowLs5H10p0vM7yE1-15" value="* Last Name" style="rounded=0;whiteSpace=wrap;html=1;sketch=1;hachureGap=4;jiggle=2;curveFitting=1;fontFamily=Architects Daughter;fontSource=https%3A%2F%2Ffonts.googleapis.com%2Fcss%3Ffamily%3DArchitects%2BDaughter;fontSize=55;strokeColor=none;" vertex="1" parent="1">
          <mxGeometry x="1065" y="4670" width="325" height="70" as="geometry" />
        </mxCell>
        <mxCell id="s2hgowLs5H10p0vM7yE1-16" value="" style="rounded=0;whiteSpace=wrap;html=1;sketch=1;hachureGap=4;jiggle=2;curveFitting=1;fontFamily=Architects Daughter;fontSource=https%3A%2F%2Ffonts.googleapis.com%2Fcss%3Ffamily%3DArchitects%2BDaughter;fontSize=20;" vertex="1" parent="1">
          <mxGeometry x="1075" y="4790" width="1020" height="120" as="geometry" />
        </mxCell>
        <mxCell id="s2hgowLs5H10p0vM7yE1-17" value="* Email" style="rounded=0;whiteSpace=wrap;html=1;sketch=1;hachureGap=4;jiggle=2;curveFitting=1;fontFamily=Architects Daughter;fontSource=https%3A%2F%2Ffonts.googleapis.com%2Fcss%3Ffamily%3DArchitects%2BDaughter;fontSize=55;strokeColor=none;" vertex="1" parent="1">
          <mxGeometry x="1080" y="4990" width="180" height="70" as="geometry" />
        </mxCell>
        <mxCell id="s2hgowLs5H10p0vM7yE1-18" value="" style="rounded=0;whiteSpace=wrap;html=1;sketch=1;hachureGap=4;jiggle=2;curveFitting=1;fontFamily=Architects Daughter;fontSource=https%3A%2F%2Ffonts.googleapis.com%2Fcss%3Ffamily%3DArchitects%2BDaughter;fontSize=20;" vertex="1" parent="1">
          <mxGeometry x="1090" y="5110" width="1020" height="120" as="geometry" />
        </mxCell>
        <mxCell id="s2hgowLs5H10p0vM7yE1-20" value="Submit" style="rounded=1;whiteSpace=wrap;html=1;sketch=1;hachureGap=4;jiggle=2;curveFitting=1;fontFamily=Architects Daughter;fontSource=https%3A%2F%2Ffonts.googleapis.com%2Fcss%3Ffamily%3DArchitects%2BDaughter;fontSize=100;" vertex="1" parent="1">
          <mxGeometry x="1110" y="5360" width="950" height="270" as="geometry" />
        </mxCell>
      </root>
    </mxGraphModel>
  </diagram>
</mxfile>
